<?xml version="1.0" encoding="utf-8"?>
<!-- Generator: Adobe Illustrator 27.0.0, SVG Export Plug-In . SVG Version: 6.00 Build 0)  -->
<svg version="1.1" id="Layer_1" xmlns="http://www.w3.org/2000/svg" xmlns:xlink="http://www.w3.org/1999/xlink" x="0px" y="0px"
	 viewBox="0 0 67 67" style="enable-background:new 0 0 67 67;" xml:space="preserve">
<style type="text/css">
	.st0{fill-rule:evenodd;clip-rule:evenodd;fill:#FFFFFF;}
</style>
<path class="st0" d="M38.2,20.4c-2.9,1.1-4.8,3.8-4.6,6.8l0.1,1.2l-1.2-0.1c-4.3-0.5-8-2.4-11.1-5.5l-1.5-1.5l-0.4,1.1
	c-0.8,2.5-0.3,5.2,1.5,7c0.9,1,0.7,1.1-0.9,0.5c-0.6-0.2-1.1-0.3-1.1-0.3c-0.2,0.2,0.4,2.3,0.8,3.2c0.6,1.2,1.8,2.3,3.2,3l1.1,0.5
	l-1.4,0c-1.3,0-1.4,0-1.2,0.5c0.5,1.5,2.3,3.2,4.4,3.9l1.5,0.5l-1.3,0.8c-1.9,1.1-4.1,1.7-6.3,1.7c-1.1,0-1.9,0.1-1.9,0.2
	c0,0.2,2.9,1.6,4.5,2.1c5,1.5,10.9,0.9,15.3-1.8c3.2-1.9,6.3-5.6,7.8-9.2c0.8-1.9,1.6-5.4,1.6-7.1c0-1.1,0.1-1.2,1.4-2.5
	c0.8-0.8,1.5-1.6,1.6-1.8c0.2-0.5,0.2-0.5-1,0c-2,0.7-2.3,0.6-1.3-0.4c0.7-0.8,1.6-2.1,1.6-2.5c0-0.1-0.4,0-0.7,0.3
	c-0.4,0.2-1.4,0.6-2.1,0.8l-1.3,0.4l-1.1-0.8c-0.6-0.4-1.5-0.9-2-1C41.1,20,39.2,20,38.2,20.4z M33.5,67C15,67,0,52,0,33.5
	C0,15,15,0,33.5,0S67,15,67,33.5C67,52,52,67,33.5,67z"/>
</svg>
